<svg width="500" height="500" viewBox="0 0 500 500" fill="none" xmlns="http://www.w3.org/2000/svg">
<path fill-rule="evenodd" clip-rule="evenodd" d="M250 500C388.071 500 500 388.071 500 250C500 111.929 388.071 0 250 0C111.929 0 0 111.929 0 250C0 388.071 111.929 500 250 500ZM297.463 72.1985C297.089 67.1487 297.276 66.6811 300.456 63.5951C304.196 59.761 304.477 59.6675 307.282 61.6313C309.901 63.5016 311.49 69.2995 310.742 74.0688C310.368 76.5002 310.555 77.9965 311.303 78.4641C311.864 78.8381 316.634 79.0252 321.777 79.0252C340.2 78.7446 349.177 81.9241 359.744 92.3043C363.391 95.9514 366.477 99.4115 366.477 99.8791C366.477 100.347 365.449 102.123 364.14 103.807C362.83 105.49 361.802 107.267 361.802 107.734C361.802 108.857 364.046 109.792 366.477 109.792C368.815 109.792 369.283 110.633 369.751 116.244C369.938 118.863 370.405 121.388 370.686 121.949C371.34 122.977 371.621 122.884 382.843 118.115C392.007 114.28 400.891 112.878 403.977 114.748C405.006 115.403 405.754 116.244 405.754 116.805C405.847 118.676 409.121 121.668 411.832 122.323C412.777 122.545 414.413 122.866 416.155 123.208L416.159 123.208C417.349 123.442 418.588 123.685 419.688 123.913C426.234 125.128 438.858 131.02 443.347 134.947C447.836 138.875 451.857 145.234 454.943 153.276C458.59 162.908 459.245 178.806 456.252 188.438C453.073 199.099 450.174 203.868 441.944 212.191C429.694 224.442 419.501 228.556 400.985 228.556H390.137L386.957 232.11C385.087 233.98 382.188 237.908 380.318 240.713C377.419 245.389 358.248 266.056 344.969 278.961C342.163 281.673 337.581 284.946 334.963 286.255C330.942 288.126 328.604 290.37 322.338 298.132C305.038 319.734 287.27 338.343 275.3 347.508C270.344 351.342 268.006 353.96 265.481 358.636C260.431 367.707 255.101 375.095 248.274 382.389C243.131 387.813 242.196 389.309 242.57 391.273C242.85 392.582 243.411 398.1 243.692 403.711C244.066 411.566 243.879 415.213 242.57 420.543C236.61 445.253 214.466 463.295 189.226 463.28C181.106 463.275 168.692 460.007 168.692 460.007L162.146 456.734C154.759 452.993 145.688 445.044 140.825 437.75C133.811 427.557 130.071 411.379 131.847 399.315C131.885 399.057 131.923 398.798 131.961 398.538C132.007 398.227 132.052 397.915 132.097 397.606L132.227 396.703L132.228 396.7L132.228 396.699C132.551 394.465 132.834 392.512 132.97 391.834C133.157 390.338 132.502 390.057 128.2 389.87C119.877 389.59 116.043 385.382 115.202 375.469C114.828 370.793 115.015 369.858 117.446 366.491C119.971 363.031 120.345 362.844 124.553 363.125C129.229 363.405 129.509 363.125 128.013 360.413C127.265 358.917 127.826 358.262 132.128 355.831C137.061 353.038 137.455 353.025 154.148 352.472L154.385 352.464C176.08 351.716 191.23 349.098 192.819 345.731C193.568 344.048 194.503 343.58 197.308 343.58C201.329 343.58 202.732 342.177 200.675 340.12C199.459 338.811 198.617 338.998 193.193 341.149C188.424 343.019 185.525 343.58 179.727 343.487C175.706 343.487 161.959 344.796 149.148 346.386C145.386 346.828 141.788 347.254 138.574 347.635L138.339 347.663L138.325 347.665L138.312 347.666C130.796 348.557 125.44 349.191 125.114 349.191C121.741 349.191 117.924 351.085 113.833 353.115C109.111 355.458 104.025 357.982 98.8364 357.982C88.8303 357.888 65.3579 351.529 65.3579 348.817C65.3579 348.349 66.9477 346.292 68.818 344.328C73.2132 339.84 72.3716 337.782 65.919 336.847C59.56 336.005 53.9491 332.265 50.3955 326.747C44.317 317.209 43.0078 308.792 47.1224 304.678C49.0863 302.714 49.9279 302.527 53.388 302.994C60.8692 304.023 64.8904 305.426 73.2132 309.728C80.4139 313.375 81.7231 314.497 83.0323 317.583C83.874 319.547 84.8091 321.136 85.1832 321.136C86.8665 321.136 96.3115 316.367 102.297 312.533C109.03 308.138 118.942 300.376 125.956 293.83C129.79 290.276 129.977 289.902 129.697 285.32L129.416 280.644L124.834 279.335C118.568 277.465 115.95 275.501 105.383 264.56C89.4849 248.007 79.1982 230.146 77.889 216.773C77.5149 213.22 76.6733 209.573 75.8317 208.731C74.8965 207.515 74.616 205.926 74.99 203.12C75.6446 198.07 74.5224 192.085 70.7818 180.583L67.8829 171.512L63.4876 172.073C58.4378 172.728 55.1648 171.418 50.8631 166.93C48.5252 164.405 48.1511 163.283 48.1511 159.074C48.1511 150.284 56.0999 131.207 60.8692 128.588C62.9265 127.373 63.8617 127.56 70.4078 130.272C78.5436 133.638 80.5074 133.545 80.2269 129.71C80.1334 128.214 80.1334 125.596 80.3204 123.819L80.5074 120.546C80.5074 120.546 80.5074 116.338 81.6829 114C84.9689 110.303 90.4198 107.978 95.183 105.945L95.1849 105.945L95.1881 105.943L95.19 105.942C95.8466 105.662 96.49 105.388 97.1129 105.116C105.823 101.217 114.638 109.167 118.709 112.838C119.228 113.306 119.67 113.704 120.024 114C122.511 116.073 122.458 117.998 122.413 119.582C122.408 119.784 122.402 119.981 122.402 120.172C122.402 121.294 123.618 124.193 125.114 126.531C128.761 132.609 129.322 134.667 127.452 135.415C126.33 135.789 126.143 136.631 126.517 138.407C126.891 139.717 126.704 142.148 126.049 143.738C125.114 146.263 125.301 147.198 126.798 150.003C129.884 155.334 131.941 154.679 154.665 141.119C167.664 133.358 171.498 131.487 176.267 131.02C178.886 130.739 183 129.43 185.525 128.121C191.043 125.128 198.337 122.884 202.358 122.884C204.602 122.884 205.631 122.323 206.379 120.546C207.595 117.834 212.645 114.467 215.45 114.467C216.479 114.467 218.069 115.216 218.817 116.151C220.687 118.302 235.649 120.546 238.361 119.143C241.728 117.366 241.634 114.561 238.081 110.82C236.304 108.95 234.34 105.864 233.779 103.994C233.125 102.123 232.189 100.253 231.535 99.7856C229.851 98.5699 220.781 95.1098 215.918 93.8941C211.616 92.7719 204.696 89.4989 201.516 87.0675C199.74 85.7583 199.74 85.6648 201.703 84.6361C202.826 84.075 210.587 82.4852 218.91 81.176C227.327 79.8668 234.808 78.277 235.556 77.7159C236.865 76.6873 263.236 76.4067 288.86 77.2484L297.744 77.5289L297.463 72.1985ZM249.396 164.405C246.871 162.815 243.318 161.693 239.39 161.132C230.039 159.916 225.269 160.103 225.269 161.599C225.269 162.815 223.305 164.966 217.133 170.39C213.206 173.85 201.236 178.806 183.187 184.51C168.973 188.999 161.959 190.308 150.924 190.402C146.342 190.402 141.947 190.87 141.386 191.431C139.142 193.114 140.077 195.639 143.35 196.761C146.997 197.977 154.946 206.58 155.974 210.601C156.535 212.659 157.19 213.126 159.247 212.939C160.65 212.846 163.175 211.817 164.765 210.601C167.944 208.263 170.282 207.048 176.174 204.71C178.231 203.868 180.943 202.185 182.252 200.969C184.777 198.631 191.417 194.891 193.1 194.891C193.661 194.891 195.718 193.862 197.589 192.553C200.02 190.87 202.826 190.028 207.408 189.654L213.86 188.999L217.881 192.646C220.126 194.704 225.55 198.725 229.945 201.624C236.211 205.832 239.764 207.515 246.778 209.386C251.641 210.695 257.813 212.378 260.431 213.126C268.006 215.371 270.063 214.996 271.559 211.443C273.71 206.113 274.926 194.049 274.271 183.201C273.523 171.231 272.962 169.642 269.221 169.642C263.891 169.642 253.23 166.836 249.396 164.405ZM223.118 133.825C223.493 134.667 224.708 136.257 226.017 137.379L228.168 139.249L226.017 141.306C224.802 142.428 221.717 145.513 219.006 148.224L219.005 148.225L219.004 148.227C214.422 152.902 213.673 153.276 205.444 155.24C200.675 156.362 191.323 158.794 184.59 160.571C167.29 165.153 157.377 165.901 161.959 162.254C170.75 155.053 174.865 151.874 177.857 150.097C179.727 148.975 181.317 147.665 181.411 147.385C181.598 145.515 182.159 143.27 182.439 143.177C182.583 143.105 183.445 142.48 184.601 141.643L184.602 141.642L184.606 141.639L184.609 141.637L184.617 141.631L184.636 141.617L184.644 141.612C184.979 141.369 185.339 141.108 185.712 140.839C187.396 139.717 190.108 138.781 191.884 138.781C193.568 138.781 195.438 138.314 195.905 137.846C197.589 136.163 206.379 138.594 207.688 140.932C209.185 143.831 210.4 144.392 212.551 143.27C214.796 142.148 220.032 136.163 220.219 134.667C220.407 132.609 220.594 132.235 221.529 132.235C222.09 132.235 222.838 132.984 223.118 133.825Z" fill="#1D1C1E"/>
<path d="M259.362 234.634C250.434 233.949 231.97 233.232 225.269 233.232C223.35 233.232 221.315 233.068 219.15 233.232C213.063 233.691 206.183 234.295 200.426 231.536C198.488 230.607 196.055 230.771 194.778 232.499C187.358 242.537 179.798 258.983 176.133 263.624C170.038 271.343 139.105 286.955 119.26 294.516C115.495 295.951 113.448 292.096 116.503 289.47L125.38 281.839C125.831 281.451 126.356 281.172 126.929 281.013C140.623 277.219 165.277 268.796 172.23 261.008C181.108 251.065 189.803 223.293 197.174 225.283C204.545 227.273 204.991 230.113 219.15 230.113C233.31 230.113 243.963 230.824 259.362 231.889C269.045 232.559 279.124 236.994 282.472 246.38C282.881 247.526 283.669 248.522 284.775 249.029C287.75 250.391 290.246 251.503 293.321 252.835C294.822 253.485 296.574 253.153 297.704 251.97C300.578 248.96 302.773 246.304 306.108 242.187C309.218 238.348 312.032 233.961 314.694 229.628C316.05 227.42 318.042 227.716 316.755 229.966C314.38 234.119 308.372 241.357 298.34 254.801C297.166 256.375 295.022 256.885 293.275 255.988C290.143 254.381 285.314 251.92 282.443 250.535C281.184 249.927 280.284 248.749 279.989 247.383C279.183 243.655 278.197 242.595 275.26 240.245C272.922 238.375 268.291 235.32 259.362 234.634Z" fill="#1D1C1E"/>
</svg>
